<?xml version="1.0" encoding="iso-8859-1"?>
<!-- Generator: Adobe Illustrator 19.0.0, SVG Export Plug-In . SVG Version: 6.00 Build 0)  -->
<svg version="1.1" id="Capa_1" xmlns="http://www.w3.org/2000/svg" xmlns:xlink="http://www.w3.org/1999/xlink" x="0px" y="0px"
	 viewBox="0 0 512 512" style="enable-background:new 0 0 512 512;" xml:space="preserve">
<g>
	<g>
		<path d="M245.912,388.608l-65.776-122.304c2.376-2.792,3.864-6.36,3.864-10.304v-16c0-4.888-2.248-9.224-5.72-12.16l13.144-32.872
			c0.696-1.76,0.76-3.704,0.16-5.504l-8-24C182.496,162.2,179.448,160,176,160H80c-3.44,0-6.496,2.2-7.592,5.472l-8,24
			c-0.6,1.8-0.536,3.744,0.168,5.504l13.152,32.872C74.248,230.776,72,235.112,72,240v16c0,3.632,1.264,6.944,3.304,9.632
			L10.056,388.816C3.48,399.936,0,412.648,0,425.576V440c0,39.696,32.304,72,72,72h111.824c39.216,0,71.512-31.904,72-71.112
			L256,426.312C256.168,412.912,252.616,399.768,245.912,388.608z M85.768,176h84.472l5.248,15.752L162.584,224H93.416
			l-12.904-32.248L85.768,176z M168.008,256H88v-16h80L168.008,256z M239.824,440.688c-0.376,30.496-25.496,55.312-56,55.312H72
			c-30.88,0-56-25.12-56-56v-14.424c0-10.064,2.704-19.96,8.008-28.936L90.04,272h74.992l66.976,124.512
			c5.36,8.936,8.12,19.168,7.992,29.6L239.824,440.688z"/>
	</g>
</g>
<g>
	<g>
		<path d="M144,376h-32c-4.408,0-8-3.592-8-8v-16c0-4.408,3.592-8,8-8h48v-16h-24v-8h-16v8h-8c-13.232,0-24,10.768-24,24v16
			c0,13.232,10.768,24,24,24h32c4.408,0,8,3.592,8,8v16c0,4.408-3.592,8-8,8H96v16h24v8h16v-8h8c13.232,0,24-10.768,24-24v-16
			C168,386.768,157.232,376,144,376z"/>
	</g>
</g>
<g>
	<g>
		<path d="M464,304H224v16h240v176H240v16h224c8.824,0,16-7.176,16-16V320C480,311.176,472.824,304,464,304z"/>
	</g>
</g>
<g>
	<g>
		<path d="M320,352c-30.88,0-56,25.12-56,56s25.12,56,56,56s56-25.12,56-56S350.88,352,320,352z M320,448c-22.056,0-40-17.944-40-40
			c0-22.056,17.944-40,40-40c22.056,0,40,17.944,40,40C360,430.056,342.056,448,320,448z"/>
	</g>
</g>
<g>
	<g>
		<path d="M445.656,370.344L432,356.688V344c0-4.416-3.584-8-8-8h-64v16h56v8c0,2.12,0.84,4.16,2.344,5.656L432,379.312v57.376
			l-13.656,13.656C416.84,451.84,416,453.88,416,456v8h-56v16h64c4.416,0,8-3.584,8-8v-12.688l13.656-13.656
			C447.16,444.16,448,442.12,448,440v-64C448,373.88,447.16,371.84,445.656,370.344z"/>
	</g>
</g>
<g>
	<g>
		<rect x="240" y="336" width="40" height="16"/>
	</g>
</g>
<g>
	<g>
		<rect x="264" y="464" width="16" height="16"/>
	</g>
</g>
<g>
	<g>
		<path d="M496,72h-30.24l-1.92-9.568c-0.608-3.032-2.904-5.44-5.904-6.192l-28.392-7.096L407.68,4.48
			C406.344,1.736,403.552,0,400.496,0H320c-3.008,0-5.76,1.68-7.128,4.36l-22.856,44.776l-27.992,7.112
			c-2.992,0.76-5.272,3.168-5.872,6.184L254.24,72H224c-8.824,0-16,7.176-16,16v200h16V88h27.04l-2.888,14.432
			c-0.472,2.352,0.136,4.792,1.656,6.64C251.336,110.928,253.6,112,256,112h208c2.4,0,4.664-1.072,6.184-2.928
			c1.52-1.848,2.128-4.288,1.656-6.64L468.96,88H496v408h-8v16h8c8.824,0,16-7.176,16-16V88C512,79.176,504.824,72,496,72z
			 M265.76,96l5.096-25.488l26.616-6.76c2.232-0.568,4.112-2.064,5.16-4.12L324.896,16h70.608l21.312,43.52
			c1.032,2.12,2.952,3.664,5.24,4.24l27.088,6.776L454.24,96H265.76z"/>
	</g>
</g>
<g>
	<g>
		<polygon points="368,56 368,32 352,32 352,56 336,56 336,72 384,72 384,56 		"/>
	</g>
</g>
<g>
	<g>
		<polygon points="448,256 448,176 432,176 432,256 408,256 408,160 392,160 392,256 368,256 368,144 352,144 352,256 328,256 
			328,160 312,160 312,256 288,256 288,176 272,176 272,256 256,256 256,272 464,272 464,256 		"/>
	</g>
</g>
<g>
</g>
<g>
</g>
<g>
</g>
<g>
</g>
<g>
</g>
<g>
</g>
<g>
</g>
<g>
</g>
<g>
</g>
<g>
</g>
<g>
</g>
<g>
</g>
<g>
</g>
<g>
</g>
<g>
</g>
</svg>
