<?xml version="1.0" encoding="iso-8859-1"?>
<!-- Generator: Adobe Illustrator 19.0.0, SVG Export Plug-In . SVG Version: 6.00 Build 0)  -->
<svg version="1.1" id="Capa_1" xmlns="http://www.w3.org/2000/svg" xmlns:xlink="http://www.w3.org/1999/xlink" x="0px" y="0px"
	 viewBox="0 0 484.045 484.045" style="enable-background:new 0 0 484.045 484.045;" xml:space="preserve">
<g>
	<g>
		<g>
			<rect x="27.303" y="265.295" transform="matrix(-0.7069 -0.7074 0.7074 -0.7069 -133.0577 491.4489)" width="16" height="16"/>
			<rect x="163.084" y="401.058" transform="matrix(0.7071 -0.7071 0.7071 0.7071 -239.1391 240.786)" width="16" height="16"/>
			<rect x="185.704" y="423.731" transform="matrix(-0.7072 -0.707 0.707 -0.7072 25.4727 874.0112)" width="16" height="16"/>
			<path d="M324.32,89.023c-0.132,0.13-0.263,0.261-0.393,0.393c-15.619,15.623-15.616,40.95,0.007,56.569
				c15.623,15.619,40.95,15.616,56.569-0.007c15.616-15.62,15.616-40.941,0-56.561C365.097,73.793,339.943,73.617,324.32,89.023z
				 M369.191,134.664c-9.37,9.376-24.565,9.38-33.941,0.011s-9.38-24.565-0.011-33.941s24.566-9.38,33.941-0.011
				c4.503,4.501,7.034,10.606,7.035,16.973C376.211,124.059,373.685,130.161,369.191,134.664z"/>
			<path d="M289.871,165.816l-11.872,11.88c-7.904-5.577-17.058-9.124-26.656-10.328l-1.072-0.144l-1.064,0.144
				c-20.136,1.77-37.438,15.01-44.408,33.984c-5.917,17.293-1.437,36.446,11.536,49.32c8.645,8.588,11.63,21.357,7.688,32.888
				c-4.827,12.884-16.609,21.861-30.312,23.096c-13.696-1.247-25.469-10.226-30.296-23.104c-3.938-11.532-0.95-24.301,7.696-32.888
				l-11.312-11.312c-12.981,12.869-17.479,32.018-11.584,49.32c1.505,4.434,3.662,8.618,6.4,12.416l-11.824,11.808l11.312,11.312
				l11.88-11.864c7.903,5.573,17.053,9.12,26.648,10.328l1.08,0.144l1.072-0.144c20.133-1.778,37.43-15.02,44.4-33.992
				c5.909-17.293,1.43-36.442-11.536-49.32c-8.646-8.587-11.634-21.356-7.696-32.888c4.835-12.879,16.619-21.852,30.32-23.088
				c13.701,1.236,25.485,10.209,30.32,23.088c3.946,11.53,0.96,24.302-7.688,32.888l11.312,11.304
				c16.601-16.54,18.788-42.666,5.168-61.736l11.8-11.8L289.871,165.816z"/>
			<rect x="49.94" y="287.922" transform="matrix(0.7071 -0.7071 0.7071 0.7071 -192.2788 127.6444)" width="16" height="16"/>
			<rect x="72.568" y="310.53" transform="matrix(0.7071 -0.7071 0.7071 0.7071 -201.6372 150.2654)" width="16" height="16"/>
			<rect x="95.17" y="333.182" transform="matrix(-0.7069 -0.7074 0.7074 -0.7069 -65.24 655.3273)" width="16" height="16"/>
			<rect x="117.799" y="355.808" transform="matrix(-0.7071 -0.7071 0.7071 -0.7071 -42.498 710.0128)" width="16" height="16"/>
			<rect x="140.451" y="378.432" transform="matrix(-0.7071 -0.7071 0.7071 -0.7071 -19.8275 764.6512)" width="16" height="16"/>
			<path d="M483.975,220.088l-9.736-126.344c-0.896-11.615-10.005-20.91-21.6-22.04l-16.176-1.6l-1.592-16.408
				c-1.097-11.444-10.156-20.503-21.6-21.6L258.559,17.16c-7.139-0.7-14.216,1.84-19.28,6.92L7.031,256.32
				c-9.373,9.372-9.375,24.568-0.003,33.941c0.001,0.001,0.002,0.002,0.003,0.003l169.704,169.704
				c9.372,9.373,24.568,9.375,33.941,0.003c0.001-0.001,0.002-0.002,0.003-0.003l5.656-5.656l5.656,5.656
				c9.372,9.369,24.564,9.369,33.936,0l221.088-221.072C481.969,233.943,484.511,227.073,483.975,220.088z M199.367,448.656
				c-3.122,3.126-8.188,3.129-11.314,0.006c-0.002-0.002-0.004-0.004-0.006-0.006L18.343,278.952
				c-3.126-3.122-3.129-8.188-0.006-11.314c0.002-0.002,0.004-0.004,0.006-0.006l232.272-232.24c1.481-1.495,3.495-2.341,5.6-2.352
				h0.8l154.736,15.056c3.815,0.366,6.834,3.385,7.2,7.2l14.976,154.736c0.22,2.371-0.627,4.717-2.312,6.4L199.367,448.656z
				 M465.687,227.584L244.615,448.656c-3.124,3.123-8.188,3.123-11.312,0L227.647,443l215.272-215.28
				c5.083-5.063,7.623-12.141,6.92-19.28L438.023,86.352l13.064,1.272c3.867,0.377,6.904,3.478,7.2,7.352l9.72,126.336
				C468.186,223.641,467.339,225.933,465.687,227.584z"/>
		</g>
	</g>
</g>
<g>
</g>
<g>
</g>
<g>
</g>
<g>
</g>
<g>
</g>
<g>
</g>
<g>
</g>
<g>
</g>
<g>
</g>
<g>
</g>
<g>
</g>
<g>
</g>
<g>
</g>
<g>
</g>
<g>
</g>
</svg>
